<svg width="48" height="48" viewBox="0 0 48 48" fill="none" xmlns="http://www.w3.org/2000/svg">
<path d="M33.5765 14.7094C34.4671 13.8235 34.4671 12.3797 33.5765 11.4938L30.2999 8.21724L30.3046 8.22193C29.4374 7.35474 27.9468 5.86411 25.8374 3.75943C24.8437 2.78911 23.2359 2.79849 22.2515 3.78286L3.79215 22.2282C3.55597 22.4627 3.36854 22.7417 3.24063 23.049C3.11272 23.3563 3.04688 23.6859 3.04688 24.0188C3.04688 24.3517 3.11272 24.6813 3.24063 24.9886C3.36854 25.2959 3.55597 25.5749 3.79215 25.8094L22.2468 44.25C22.7226 44.725 23.3675 44.9918 24.0398 44.9918C24.7121 44.9918 25.3569 44.725 25.8328 44.25L33.5718 36.5157C34.4624 35.6297 34.4624 34.186 33.5718 33.3001C33.144 32.8744 32.5651 32.6355 31.9617 32.6355C31.3582 32.6355 30.7793 32.8744 30.3515 33.3001L24.4921 39.1688C24.2484 39.4125 23.8687 39.4125 23.6249 39.1688L8.88277 24.4407C8.63902 24.1969 8.63902 23.8172 8.88277 23.5735L23.6203 8.84536C23.639 8.82661 23.6624 8.81255 23.6812 8.7938C23.9249 8.60161 24.2624 8.62036 24.4874 8.84536L30.3562 14.7094C31.2468 15.6 32.6906 15.6 33.5765 14.7094V14.7094ZM19.1531 24.1126C19.1531 25.4328 19.678 26.699 20.6125 27.6326C21.547 28.5662 22.8144 29.0907 24.1359 29.0907C25.4574 29.0907 26.7248 28.5662 27.6593 27.6326C28.5937 26.699 29.1187 25.4328 29.1187 24.1126C29.1187 22.7923 28.5937 21.5261 27.6593 20.5925C26.7248 19.6589 25.4574 19.1344 24.1359 19.1344C22.8144 19.1344 21.547 19.6589 20.6125 20.5925C19.678 21.5261 19.1531 22.7923 19.1531 24.1126ZM44.2874 22.3032L38.5265 16.5704C37.6359 15.6844 36.1921 15.6844 35.3062 16.5751C35.0944 16.7859 34.9264 17.0364 34.8118 17.3123C34.6971 17.5882 34.6381 17.8841 34.6381 18.1829C34.6381 18.4816 34.6971 18.7775 34.8118 19.0534C34.9264 19.3293 35.0944 19.5799 35.3062 19.7907L39.1968 23.6766C39.4406 23.9204 39.4406 24.3 39.1968 24.5438L35.3624 28.3735C35.1507 28.5843 34.9827 28.8348 34.868 29.1108C34.7534 29.3867 34.6944 29.6825 34.6944 29.9813C34.6944 30.2801 34.7534 30.5759 34.868 30.8518C34.9827 31.1278 35.1507 31.3783 35.3624 31.5891C35.7902 32.0148 36.3691 32.2537 36.9726 32.2537C37.5761 32.2537 38.155 32.0148 38.5827 31.5891L44.2921 25.8844C44.5275 25.6493 44.7141 25.3699 44.8413 25.0625C44.9685 24.7551 45.0337 24.4255 45.0333 24.0928C45.0329 23.7601 44.9667 23.4308 44.8388 23.1237C44.7108 22.8165 44.5234 22.5377 44.2874 22.3032V22.3032Z" fill="#423C6D"/>
</svg>
