<svg width="40" height="40" viewBox="0 0 40 40" fill="none" xmlns="http://www.w3.org/2000/svg">
<path d="M33.5996 11.3998C28.7996 3.99976 18.9996 1.79976 11.3996 6.39976C3.99956 10.9998 1.59956 20.9998 6.39956 28.3998L6.79956 28.9998L5.19956 34.9998L11.1996 33.3998L11.7996 33.7998C14.3996 35.1998 17.1996 35.9998 19.9996 35.9998C22.9996 35.9998 25.9996 35.1998 28.5996 33.5998C35.9996 28.7998 38.1996 18.9998 33.5996 11.3998ZM29.3996 26.7998C28.5996 27.9998 27.5996 28.7998 26.1996 28.9998C25.3996 28.9998 24.3996 29.3998 20.3996 27.7998C16.9996 26.1998 14.1996 23.5998 12.1996 20.5998C10.9996 19.1998 10.3996 17.3998 10.1996 15.5998C10.1996 13.9998 10.7996 12.5998 11.7996 11.5998C12.1996 11.1998 12.5996 10.9998 12.9996 10.9998H13.9996C14.3996 10.9998 14.7996 10.9998 14.9996 11.7998C15.3996 12.7998 16.3996 15.1998 16.3996 15.3998C16.5996 15.5998 16.5996 15.9998 16.3996 16.1998C16.5996 16.5998 16.3996 16.9998 16.1996 17.1998C15.9996 17.3998 15.7996 17.7998 15.5996 17.9998C15.1996 18.1998 14.9996 18.5998 15.1996 18.9998C15.9996 20.1998 16.9996 21.3998 17.9996 22.3998C19.1996 23.3998 20.3996 24.1998 21.7996 24.7998C22.1996 24.9998 22.5996 24.9998 22.7996 24.5998C22.9996 24.1998 23.9996 23.1998 24.3996 22.7998C24.7996 22.3998 24.9996 22.3998 25.3996 22.5998L28.5996 24.1998C28.9996 24.3998 29.3996 24.5998 29.5996 24.7998C29.7996 25.3998 29.7996 26.1998 29.3996 26.7998Z" fill="black"/>
</svg>
