<svg width="120" height="120" viewBox="0 0 120 120" fill="none" xmlns="http://www.w3.org/2000/svg">
<path d="M6.42529 100.371V81.2747H12.5399C13.9073 81.2747 14.9135 81.3521 15.5849 81.5075C17.7521 81.9977 19.5587 83.6753 19.5587 86.2553C19.5587 87.8813 18.7847 89.3267 17.3387 90.1265C19.4291 90.8465 20.4869 92.3717 20.4869 94.5665C20.4869 96.3983 19.7129 98.0759 18.2669 99.0821C16.7699 100.14 15.7895 100.373 12.7697 100.373L6.42529 100.371ZM13.0319 88.5263C14.2445 88.5263 14.8919 88.0103 14.8919 87.0041C14.8919 85.9979 14.2703 85.5599 13.0577 85.5599H11.0963V88.5275L13.0319 88.5263ZM13.5995 96.0863C14.9669 96.0863 15.8195 95.4929 15.8195 94.2545C15.8195 93.1445 15.0707 92.6027 13.6259 92.6027H11.0963V96.0863H13.5995Z" fill="white"/>
<path d="M23.1221 100.371V81.2747H33.7283V85.5599H27.7931V88.5275H33.5477V92.8115H27.7931V96.0887H33.7283V100.373L23.1221 100.371Z" fill="white"/>
<path d="M36.748 100.371V81.2747H47.3542V85.5599H41.4184V88.5275H47.1736V92.8115H41.4184V96.0887H47.3542V100.373L36.748 100.371Z" fill="white"/>
<path d="M58.3481 100.371V81.2747H64.4639C65.8313 81.2747 66.8381 81.3521 67.5089 81.5075C69.6767 81.9977 71.4833 83.6753 71.4833 86.2553C71.4833 87.8813 70.7087 89.3267 69.2633 90.1265C71.3537 90.8465 72.4115 92.3717 72.4115 94.5665C72.4115 96.3983 71.6375 98.0759 70.1915 99.0821C68.6915 100.14 67.7141 100.373 64.6949 100.373L58.3481 100.371ZM64.9541 88.5263C66.1673 88.5263 66.8141 88.0103 66.8141 87.0041C66.8141 85.9979 66.1931 85.5599 64.9799 85.5599H63.0185V88.5275L64.9541 88.5263ZM65.5217 96.0863C66.8897 96.0863 67.7417 95.4929 67.7417 94.2545C67.7417 93.1445 66.9935 92.6027 65.5481 92.6027H63.0191V96.0863H65.5217Z" fill="white"/>
<path d="M74.2202 91.26C74.2202 85.3507 78.4802 80.9119 84.2846 80.9119C89.8586 80.9119 94.3748 85.2217 94.3748 90.6918C94.3748 96.3432 89.9876 100.73 84.5168 100.73C79.2002 100.733 74.2202 96.9138 74.2202 91.26ZM89.4974 90.8472C89.4974 87.8539 87.3554 85.1959 84.2846 85.1959C81.2396 85.1959 79.0976 87.7506 79.0976 90.7698C79.0976 93.918 81.2396 96.447 84.362 96.447C87.38 96.4488 89.4962 93.894 89.4962 90.849L89.4974 90.8472Z" fill="white"/>
<path d="M108.283 100.371L104.154 93.6101L100.232 100.371H94.7866L101.471 90.2039L95.5606 81.2747H101.081L104.358 86.7203L107.532 81.2747H113.029L107.197 90.3071L113.803 100.371H108.283Z" fill="white"/>
<path d="M10.9577 111.083L10.1585 109.223H7.58932L6.78232 111.083H6.20752L8.56732 105.556H9.18772L11.5631 111.083H10.9577ZM8.87992 106.183L7.79992 108.72H9.94192L8.87992 106.183Z" fill="white"/>
<path d="M15.12 109.044V108.543H18.8694C18.7494 110.03 17.4894 111.183 15.9492 111.183C14.4324 111.183 12.9834 109.973 12.9834 108.322C12.9834 106.739 14.3208 105.461 15.9414 105.461C17.1816 105.461 18.2346 106.253 18.5556 107.03H17.9136C17.5314 106.38 16.74 105.96 15.948 105.96C14.6478 105.96 13.5348 107.006 13.5348 108.328C13.5348 109.665 14.6556 110.681 15.9702 110.681C16.971 110.681 17.9502 110.001 18.2034 109.045L15.12 109.044Z" fill="white"/>
<path d="M20.7598 111.083V105.556H23.785V106.056H21.3106V108.043H23.6998V108.543H21.3106V110.583H23.7832V111.084L20.7598 111.083ZM22.8958 105.093L22.2538 104.547L21.5938 105.093H20.9152L21.9982 104.16H22.4908L23.5588 105.094L22.8958 105.093Z" fill="white"/>
<path d="M29.6845 111.083L26.4055 106.223H26.3905V111.083H25.8379V105.556H26.5849L29.6695 110.141H29.6845V105.556H30.2401V111.083H29.6845Z" fill="white"/>
<path d="M37.6019 109.634C37.0619 110.597 36.1019 111.18 35.0549 111.18C33.4787 111.18 32.1641 109.933 32.1641 108.326C32.1641 106.706 33.4565 105.466 35.0477 105.466C36.0677 105.466 37.1387 106.056 37.5797 106.975H36.9599C36.745 106.664 36.4581 106.41 36.1238 106.234C35.7894 106.059 35.4175 105.967 35.0399 105.966C33.8075 105.966 32.7173 107.057 32.7173 108.334C32.7173 109.574 33.8075 110.68 35.0477 110.68C35.8019 110.68 36.4817 110.299 36.9821 109.634H37.6019Z" fill="white"/>
<path d="M39.522 111.083V105.556H40.0746V111.083H39.522Z" fill="white"/>
<path d="M46.5208 111.083L45.7216 109.223H43.1518L42.3454 111.083H41.77L44.1304 105.556H44.7508L47.1256 111.083H46.5208ZM44.4442 106.183L43.3642 108.722H45.508L44.4442 106.183Z" fill="white"/>
<path fill-rule="evenodd" clip-rule="evenodd" d="M32.2727 13.6428C33.2665 13.0686 34.3942 12.7664 35.5421 12.7668L35.5439 12.7686C36.6915 12.7682 37.819 13.0704 38.8127 13.6446L48.1769 19.0506C49.1707 19.6246 49.996 20.45 50.5699 21.4439C51.1438 22.4378 51.446 23.5652 51.4463 24.7128V35.5255C51.4461 36.6732 51.144 37.8008 50.5701 38.7948C49.9962 39.7888 49.1708 40.6143 48.1769 41.1882L38.8127 46.5942C37.8184 47.1683 36.6907 47.4704 35.5427 47.4704C34.3946 47.4704 33.2669 47.1683 32.2727 46.5942L22.909 41.1882C21.9151 40.6143 21.0897 39.7888 20.5158 38.7948C19.9419 37.8008 19.6398 36.6732 19.6396 35.5255V24.711C19.6399 23.5634 19.9421 22.436 20.516 21.4421C21.0899 20.4482 21.9152 19.6228 22.909 19.0488L32.2727 13.6428Z" fill="#F6D638"/>
<path d="M83.2936 37.6974V22.5414C83.2936 22.054 83.1653 21.5752 82.9216 21.153C82.6778 20.7309 82.3273 20.3804 81.9052 20.1366L68.7796 12.5586C68.3575 12.3149 67.8786 12.1865 67.3912 12.1865C66.9037 12.1865 66.4249 12.3149 66.0028 12.5586L52.8772 20.1366C52.455 20.3804 52.1045 20.7309 51.8608 21.153C51.6171 21.5752 51.4888 22.054 51.4888 22.5414V37.6974C51.4888 38.1849 51.6172 38.6637 51.8609 39.0858C52.1046 39.5079 52.4551 39.8585 52.8772 40.1022L66.0028 47.6802C66.4249 47.924 66.9037 48.0524 67.3912 48.0524C67.8786 48.0524 68.3575 47.924 68.7796 47.6802L81.9052 40.1022C82.3273 39.8585 82.6778 39.5079 82.9215 39.0858C83.1652 38.6637 83.2935 38.1849 83.2936 37.6974Z" fill="white"/>
<path d="M67.4176 65.142V49.986C67.418 49.4983 67.2898 49.0192 67.0461 48.5968C66.8023 48.1744 66.4516 47.8237 66.0292 47.58L52.9036 40.0032C52.4815 39.7594 52.0027 39.6311 51.5152 39.6311C51.0278 39.6311 50.5489 39.7594 50.1268 40.0032L37.0012 47.58C36.579 47.8236 36.2284 48.1742 35.9846 48.5963C35.7409 49.0185 35.6127 49.4974 35.6128 49.9848V65.1408C35.6129 65.6282 35.7412 66.107 35.9849 66.5292C36.2286 66.9513 36.5791 67.3018 37.0012 67.5456L50.1268 75.1236C50.5489 75.3674 51.0278 75.4957 51.5152 75.4957C52.0027 75.4957 52.4815 75.3674 52.9036 75.1236L66.0292 67.5456C66.4511 67.3019 66.8015 66.9516 67.0452 66.5297C67.2889 66.1078 67.4174 65.6292 67.4176 65.142Z" fill="white"/>
<path fill-rule="evenodd" clip-rule="evenodd" d="M79.9728 41.2087C80.9669 40.6348 82.0945 40.3329 83.2422 40.3333H83.247C84.3946 40.3329 85.522 40.6348 86.5159 41.2087L95.8801 46.6153C96.8734 47.1896 97.6981 48.0151 98.2714 49.009C98.8448 50.0029 99.1465 51.1301 99.1464 52.2775V63.0901C99.1463 64.2378 98.8442 65.3654 98.2703 66.3594C97.6964 67.3534 96.871 68.1789 95.877 68.7529L86.5128 74.1589C85.5186 74.7329 84.3909 75.035 83.2429 75.035C82.0948 75.035 80.9671 74.7329 79.9728 74.1589L70.6087 68.7529C69.6148 68.1788 68.7896 67.3533 68.2158 66.3593C67.642 65.3653 67.3399 64.2378 67.3398 63.0901V52.2775C67.34 51.1298 67.6422 50.0025 68.2159 49.0086C68.7897 48.0147 69.6149 47.1893 70.6087 46.6153L79.9728 41.2087Z" fill="#F6D638"/>
<path d="M76.455 15.6341L75.2598 10.2491C75.2247 10.1032 75.2191 9.95169 75.2432 9.80354C75.2673 9.65539 75.3207 9.51353 75.4002 9.38623C75.4797 9.25893 75.5838 9.14874 75.7064 9.06209C75.8289 8.97545 75.9675 8.91408 76.1141 8.88157C76.2606 8.84906 76.4122 8.84606 76.5599 8.87274C76.7076 8.89942 76.8485 8.95526 76.9744 9.03698C77.1003 9.11871 77.2086 9.22469 77.2931 9.34874C77.3777 9.47279 77.4366 9.61243 77.4666 9.75951L78.1722 12.9395L81.2706 12.2519C81.4154 12.2198 81.5652 12.2165 81.7113 12.2422C81.8575 12.2679 81.9971 12.3222 82.1223 12.4019C82.2474 12.4816 82.3557 12.5852 82.4408 12.7067C82.5259 12.8282 82.5863 12.9653 82.6185 13.1102C82.6506 13.2551 82.6539 13.4048 82.6282 13.551C82.6024 13.6971 82.5482 13.8368 82.4685 13.9619C82.3888 14.0871 82.2852 14.1953 82.1637 14.2805C82.0421 14.3656 81.905 14.426 81.7602 14.4581L76.455 15.6341Z" fill="white"/>
</svg>
