<svg id="logo_final" xmlns="http://www.w3.org/2000/svg" viewBox="0 0 1024 768"><defs><style>.cls-1{fill:#fff;}</style></defs><path class="cls-1" d="M384.45,253.69a29.37,29.37,0,0,1-2.86,12.93,32.6,32.6,0,0,1-7.62,10.2,34.73,34.73,0,0,1-11,6.63,36.13,36.13,0,0,1-13.06,2.38l-45.14-.14V173.9h40.25a40.54,40.54,0,0,1,13.48,2.17,31.52,31.52,0,0,1,10.83,6.29,28.55,28.55,0,0,1,7.2,10.06,33.14,33.14,0,0,1,2.58,13.34,28,28,0,0,1-2.79,12.16,30.49,30.49,0,0,1-7.41,9.92,25.8,25.8,0,0,1,6.5,4.61,30,30,0,0,1,4.89,6.22,29,29,0,0,1,3.07,7.26A29.37,29.37,0,0,1,384.45,253.69Zm-26.69-47.51a15,15,0,0,0-1.53-7,14.59,14.59,0,0,0-4.13-4.89,18.18,18.18,0,0,0-5.93-2.93,25,25,0,0,0-7-1H326.46v30.74c2.33.1,4.43.14,6.29.14h6.43a28.71,28.71,0,0,0,7-.84,17.69,17.69,0,0,0,5.93-2.65,13.33,13.33,0,0,0,4.13-4.68A14.52,14.52,0,0,0,357.76,206.18Zm4.2,46.25a15.51,15.51,0,0,0-1.33-6.43,14.72,14.72,0,0,0-3.63-5,17,17,0,0,0-5.31-3.14,18.42,18.42,0,0,0-6.5-1.12q-4.76-.14-9.36-.07t-9.37.07v30.88h16.21a29.82,29.82,0,0,0,7-.84,18.12,18.12,0,0,0,6.22-2.72,14.92,14.92,0,0,0,4.4-4.75A13.46,13.46,0,0,0,362,252.43Z"/><path class="cls-1" d="M719.23,558a55.59,55.59,0,0,1-12.16,35.08l11.18,11L705.4,617l-11.46-11.6a61.12,61.12,0,0,1-15.65,7.69,59.69,59.69,0,0,1-40.87-1.75,59.73,59.73,0,0,1-18.73-12.43,58.5,58.5,0,0,1-12.64-18.38,57.36,57.36,0,0,1,0-45.06A58.24,58.24,0,0,1,618.69,517a59.73,59.73,0,0,1,18.73-12.43,59.8,59.8,0,0,1,45.76,0A59.44,59.44,0,0,1,702,517a58.43,58.43,0,0,1,12.65,18.45A55.75,55.75,0,0,1,719.23,558Zm-21.1,0a35.83,35.83,0,0,0-3-14.53,39.86,39.86,0,0,0-8.11-12,37.93,37.93,0,0,0-12-8.17,36.7,36.7,0,0,0-14.75-3,36.12,36.12,0,0,0-14.67,3,39.13,39.13,0,0,0-12,8.17,38.25,38.25,0,0,0-8.1,12,37.52,37.52,0,0,0,0,29.07,37.34,37.34,0,0,0,8.1,11.94,39.67,39.67,0,0,0,12,8.11,37.46,37.46,0,0,0,24.8,1.61,41,41,0,0,0,9.16-3.92l-10.49-10.2,12.86-12.85,10.34,10.62A35.88,35.88,0,0,0,698.13,558Z"/><rect class="cls-1" x="373.69" y="383.95" width="238.71" height="14.56" transform="translate(-132.1 464.38) rotate(-45.11)"/></svg>